# xmcd
#
# Track frame offsets:
#	150
#	14287
#	31227
#	45681
#	63158
#	82636
#	105931
#	126733
#	147857
#	165394
#	185611
#	208335
#	225407
#	243079
#	257321
#
# Disc length: 3651 seconds
#
# Revision: 0
# Processed by: cddbd v1.5.2PL0 Copyright (c) Steve Scherf et al.
# Submitted via: dBpowerAMP V4.0
#
DISCID=b60e410f
DTITLE=דני ליטני - יחס חם
DYEAR=1900
DGENRE=
TTITLE0=ציף ציף מעל הרציף
TTITLE1=משבר אמון
TTITLE2=אדם זקן
TTITLE3=ולא היה בינינו אלא זוהר
TTITLE4=אמרת שתחזרי
TTITLE5=לא טוב היות האדם לבדו
TTITLE6=יחס חם
TTITLE7=היום בו נפלו השמיים
TTITLE8=יום נוסף
TTITLE9=אופליה
TTITLE10=בראש אחד
TTITLE11=ולא היה בינינו אלא זוהר - בהופעה
TTITLE12=יום נוסף - בהופעה
TTITLE13=ערב פתאומי
TTITLE14=אופליה - ביצוע אחר
EXTD=
EXTT0=
EXTT1=
EXTT2=
EXTT3=
EXTT4=
EXTT5=
EXTT6=
EXTT7=
EXTT8=
EXTT9=
EXTT10=
EXTT11=
EXTT12=
EXTT13=
EXTT14=
PLAYORDER=
